# Blender v2.91.0 OBJ File: 'catPlush.blend'
# www.blender.org
o plushCat_Cube.001
v -0.109675 0.010461 0.000000
v -0.133784 0.189358 0.000000
v -0.137954 0.291476 -0.000023
v -0.143052 0.085195 0.000000
v -0.061066 0.350218 -0.000023
v -0.039314 0.000438 -0.000004
v -0.039314 0.188387 0.066835
v -0.039314 0.188387 -0.071469
v -0.037857 0.292293 0.052622
v -0.037851 0.292044 -0.052899
v -0.039314 0.085195 -0.076208
v -0.039314 0.085195 0.064468
v -0.099976 0.022311 0.033836
v -0.092396 0.319368 0.040352
v -0.099976 0.022311 -0.038918
v -0.090573 0.319497 -0.040398
v -0.118198 0.186232 -0.047666
v -0.117833 0.185456 0.041337
v -0.112793 0.288278 -0.033554
v -0.120117 0.284926 0.032340
v -0.120087 0.085195 -0.050360
v -0.120087 0.085195 0.042489
v -0.070695 0.328283 -0.038723
v -0.039314 0.014370 0.041228
v -0.039314 0.014370 -0.052549
v -0.071539 0.328292 0.038641
v -0.076642 0.358263 -0.000023
v -0.123954 0.336427 -0.000023
v -0.085437 0.349498 -0.026672
v -0.097646 0.343658 -0.029205
v -0.112864 0.339168 -0.022151
v -0.113662 0.339017 0.025450
v -0.085984 0.349432 0.026626
v -0.098630 0.343529 0.029159
v -0.097324 0.391662 -0.000023
v -0.105630 0.392466 -0.000023
v -0.112659 0.387654 -0.000023
v -0.098551 0.387570 -0.012009
v -0.103391 0.386561 -0.012847
v -0.108243 0.385397 -0.011993
v -0.108436 0.385311 0.011948
v -0.098751 0.387496 0.011963
v -0.103602 0.386475 0.012802
v -0.139850 0.242538 -0.000023
v -0.039297 0.241836 -0.063941
v -0.039322 0.241877 0.062822
v -0.113531 0.240176 -0.042642
v -0.121328 0.237200 0.037023
v -0.078419 0.016676 -0.048592
v -0.117145 0.316608 0.029413
v -0.114924 0.316666 -0.027193
v -0.078419 0.016676 0.038012
v -0.132175 0.315628 -0.000023
v -0.078419 0.001922 0.000000
v -0.078419 0.085195 0.059914
v -0.080545 0.289098 0.048275
v -0.078419 0.085195 -0.070569
v -0.078551 0.291639 -0.048400
v -0.078391 0.188391 -0.065118
v -0.078934 0.188468 0.062281
v -0.077982 0.241826 -0.058105
v -0.079052 0.241792 0.058470
v -0.143273 0.135034 0.000000
v -0.039314 0.134826 -0.077035
v -0.039314 0.134826 0.067799
v -0.120475 0.134847 -0.051156
v -0.121108 0.134953 0.043195
v -0.078419 0.134826 -0.070459
v -0.078472 0.134832 0.063245
v -0.041495 0.353874 -0.000023
v -0.035378 0.328104 0.039480
v -0.037322 0.326779 -0.039417
v -0.134464 0.041209 0.000000
v -0.113458 0.045734 -0.047618
v -0.113458 0.045734 0.040140
v -0.039314 0.045734 0.057437
v -0.039314 0.045734 -0.069318
v -0.078419 0.045734 0.053691
v -0.078419 0.045734 -0.063673
v 0.109678 0.010461 0.000000
v -0.004459 0.356456 -0.000023
v 0.000000 0.000062 -0.000006
v 0.000000 0.188387 0.069022
v 0.134573 0.188387 0.000000
v 0.000000 0.188387 -0.073142
v -0.000633 0.292600 0.054672
v 0.127154 0.293309 -0.000023
v -0.000489 0.292267 -0.054437
v 0.000000 0.085195 0.066614
v 0.143628 0.085195 0.000000
v 0.000000 0.085195 -0.078391
v 0.045788 0.355081 -0.000023
v 0.039314 0.000438 -0.000004
v 0.039073 0.188387 0.066835
v 0.039172 0.188387 -0.071469
v 0.034943 0.293068 0.052622
v 0.035275 0.292329 -0.052899
v 0.039314 0.085195 -0.076208
v 0.039323 0.085195 0.064468
v 0.099991 0.022311 0.033836
v 0.080670 0.323628 0.040352
v 0.099984 0.022311 -0.038918
v 0.084232 0.322251 -0.040398
v 0.000000 0.013755 -0.054826
v -0.001781 0.328236 -0.039982
v 0.116726 0.185146 -0.047666
v 0.116546 0.185095 0.041337
v 0.000000 0.013755 0.042143
v -0.002382 0.327401 0.040123
v 0.111563 0.292904 -0.033554
v 0.109665 0.293683 0.032340
v 0.120566 0.085195 -0.050360
v 0.120599 0.085195 0.042489
v 0.063195 0.331035 -0.038723
v 0.039314 0.014370 0.041228
v 0.039314 0.014370 -0.052549
v 0.059681 0.332372 0.038641
v 0.058680 0.364680 -0.000023
v 0.114652 0.342728 -0.000023
v 0.071927 0.354766 -0.026672
v 0.085849 0.348789 -0.029205
v 0.102374 0.344591 -0.022151
v 0.099624 0.345593 0.025450
v 0.068594 0.355985 0.026626
v 0.082228 0.350129 0.029159
v 0.077130 0.399584 -0.000023
v 0.085642 0.400535 -0.000023
v 0.092859 0.395830 -0.000023
v 0.079483 0.395118 -0.012009
v 0.084510 0.394171 -0.012847
v 0.089439 0.393104 -0.011993
v 0.087717 0.393719 0.011948
v 0.077780 0.395717 0.011963
v 0.082674 0.394822 0.012802
v -0.000028 0.241983 0.064886
v 0.132506 0.242176 -0.000023
v -0.000007 0.241872 -0.065527
v 0.039240 0.241948 -0.063941
v 0.039224 0.242080 0.062822
v 0.115058 0.242054 -0.042642
v 0.114662 0.242298 0.037023
v 0.078419 0.016676 -0.048592
v 0.104977 0.320908 0.029413
v 0.107311 0.319954 -0.027193
v 0.078419 0.016676 0.038012
v 0.122008 0.319306 -0.000023
v 0.078419 0.001922 0.000000
v 0.078653 0.085195 0.059914
v 0.074387 0.293576 0.048275
v 0.078563 0.085195 -0.070569
v 0.076862 0.292597 -0.048400
v 0.077345 0.188387 -0.065118
v 0.077155 0.188387 0.062281
v 0.077463 0.242017 -0.058105
v 0.077306 0.242206 0.058470
v 0.000000 0.134826 0.069989
v 0.141895 0.134826 0.000000
v 0.000000 0.134826 -0.079354
v 0.039332 0.134826 -0.077035
v 0.039364 0.134826 0.067799
v 0.119866 0.134826 -0.051156
v 0.119675 0.136432 0.043195
v 0.078369 0.134826 -0.070459
v 0.078253 0.134826 0.063245
v 0.028724 0.357230 -0.000023
v 0.031147 0.328639 0.039451
v 0.033218 0.327998 -0.039417
v 0.000000 0.045734 -0.072894
v 0.000000 0.045734 0.060726
v 0.134720 0.041209 0.000000
v 0.113601 0.045734 -0.047618
v 0.113644 0.045734 0.040140
v 0.039314 0.045734 0.057437
v 0.039314 0.045734 -0.069318
v 0.078454 0.045734 0.053691
v 0.078430 0.045734 -0.063673
vt 0.893119 0.901784
vt 0.911913 0.962348
vt 0.906238 0.965541
vt 0.876045 0.914794
vt 0.120676 0.100587
vt 0.088735 0.059885
vt 0.134171 0.038842
vt 0.149516 0.094317
vt 0.840419 0.436651
vt 0.790149 0.432705
vt 0.801685 0.353335
vt 0.862861 0.369027
vt 0.737983 0.480200
vt 0.788286 0.478832
vt 0.788695 0.530166
vt 0.737985 0.530961
vt 0.837845 0.477291
vt 0.885140 0.472550
vt 0.899714 0.522081
vt 0.839284 0.527959
vt 0.202346 0.257277
vt 0.255885 0.257743
vt 0.255887 0.331554
vt 0.200877 0.331185
vt 0.148667 0.255649
vt 0.145685 0.329868
vt 0.142757 0.406222
vt 0.199346 0.407219
vt 0.197318 0.481304
vt 0.138574 0.480368
vt 0.797253 0.820040
vt 0.856599 0.818934
vt 0.847322 0.878876
vt 0.797856 0.879450
vt 0.011611 0.327651
vt 0.080192 0.328041
vt 0.078506 0.406921
vt 0.016131 0.410191
vt 0.737993 0.820130
vt 0.737994 0.879645
vt 0.024072 0.168838
vt 0.090910 0.182919
vt 0.084013 0.251064
vt 0.012289 0.244047
vt 0.255889 0.407380
vt 0.255890 0.481088
vt 0.829213 0.949703
vt 0.798609 0.952201
vt 0.843326 0.593054
vt 0.906326 0.588998
vt 0.911482 0.665130
vt 0.848325 0.666986
vt 0.951390 0.438903
vt 0.976419 0.504231
vt 0.203608 0.137282
vt 0.255882 0.138431
vt 0.255883 0.191181
vt 0.203408 0.190508
vt 0.152621 0.136675
vt 0.151208 0.188860
vt 0.913036 0.743751
vt 0.988697 0.665889
vt 0.983029 0.749124
vt 0.201680 0.089781
vt 0.193853 0.026012
vt 0.255878 0.021448
vt 0.255880 0.088314
vt 0.916017 0.818761
vt 0.972964 0.825536
vt 0.965349 0.863375
vt 0.917863 0.858944
vt 0.737981 0.432539
vt 0.737978 0.347598
vt 0.737991 0.745420
vt 0.794950 0.745047
vt 0.255891 0.539862
vt 0.255891 0.612677
vt 0.196157 0.611679
vt 0.196875 0.539820
vt 0.737987 0.595457
vt 0.790324 0.594983
vt 0.792778 0.668397
vt 0.737989 0.668916
vt 0.105434 0.132815
vt 0.047554 0.104911
vt 0.148115 0.539450
vt 0.165974 0.609238
vt 0.140321 0.617180
vt 0.119907 0.574781
vt 0.957980 0.897574
vt 0.918950 0.895140
vt 0.852375 0.744097
vt 0.079123 0.481037
vt 0.024174 0.485907
vt 0.855196 0.957792
vt 0.030602 0.523658
vt 0.080496 0.519682
vt 0.080131 0.554506
vt 0.037350 0.557720
vt 0.877358 0.861951
vt 0.906923 0.983474
vt 0.089079 0.642355
vt 0.089781 0.624654
vt 0.918288 0.960282
vt 0.932599 0.972023
vt 0.920950 0.980717
vt 0.103209 0.561971
vt 0.118475 0.522909
vt 0.075259 0.639613
vt 0.084183 0.621478
vt 0.063792 0.631110
vt 0.077888 0.619404
vt 0.989693 0.581295
vt 0.908862 0.392364
vt 0.871556 0.438746
vt 0.737994 0.953243
vt 0.582871 0.901787
vt 0.599945 0.914797
vt 0.569755 0.965542
vt 0.564080 0.962350
vt 0.391086 0.100578
vt 0.362245 0.094310
vt 0.377587 0.038834
vt 0.423025 0.059874
vt 0.635544 0.436659
vt 0.613098 0.369037
vt 0.674271 0.353340
vt 0.685814 0.432709
vt 0.687275 0.530170
vt 0.687680 0.478836
vt 0.638122 0.477298
vt 0.636686 0.527966
vt 0.576256 0.522092
vt 0.590826 0.472561
vt 0.309424 0.257274
vt 0.310897 0.331183
vt 0.363104 0.255643
vt 0.366089 0.329863
vt 0.369021 0.406218
vt 0.373207 0.480364
vt 0.314462 0.481303
vt 0.312432 0.407217
vt 0.678733 0.820042
vt 0.678131 0.879452
vt 0.628667 0.878879
vt 0.619388 0.818938
vt 0.500165 0.327639
vt 0.495649 0.410181
vt 0.433273 0.406913
vt 0.431583 0.328032
vt 0.487694 0.168825
vt 0.499483 0.244033
vt 0.427758 0.251055
vt 0.420856 0.182910
vt 0.677380 0.952202
vt 0.646777 0.949704
vt 0.632648 0.593060
vt 0.627654 0.666992
vt 0.564497 0.665140
vt 0.569649 0.589009
vt 0.499551 0.504248
vt 0.524575 0.438919
vt 0.308155 0.137278
vt 0.308359 0.190505
vt 0.359143 0.136668
vt 0.360559 0.188854
vt 0.562948 0.743760
vt 0.492957 0.749136
vt 0.487284 0.665904
vt 0.310081 0.089777
vt 0.317903 0.026008
vt 0.559971 0.818768
vt 0.558127 0.858950
vt 0.510642 0.863383
vt 0.503026 0.825546
vt 0.681032 0.745050
vt 0.314907 0.539819
vt 0.315626 0.611679
vt 0.683200 0.668400
vt 0.685650 0.594987
vt 0.406330 0.132806
vt 0.464208 0.104898
vt 0.363668 0.539447
vt 0.391877 0.574778
vt 0.371463 0.617180
vt 0.345810 0.609237
vt 0.557041 0.895145
vt 0.518013 0.897580
vt 0.623608 0.744103
vt 0.432659 0.481032
vt 0.487610 0.485899
vt 0.620794 0.957793
vt 0.481183 0.523651
vt 0.474436 0.557714
vt 0.431653 0.554502
vt 0.431287 0.519677
vt 0.598630 0.861956
vt 0.569070 0.983474
vt 0.422005 0.624653
vt 0.422707 0.642355
vt 0.557705 0.960284
vt 0.555045 0.980717
vt 0.543395 0.972025
vt 0.393307 0.522906
vt 0.408575 0.561968
vt 0.427603 0.621477
vt 0.436528 0.639613
vt 0.433899 0.619403
vt 0.447996 0.631109
vt 0.486282 0.581311
vt 0.604408 0.438756
vt 0.567099 0.392378
vn -0.2554 0.3300 -0.9087
vn -0.2126 0.6434 -0.7354
vn 0.3802 0.6875 -0.6187
vn 0.3140 0.5632 -0.7643
vn -0.4544 -0.6586 0.5997
vn -0.5739 -0.8184 0.0292
vn -0.1789 -0.9833 0.0326
vn -0.1898 -0.7368 0.6489
vn -0.2327 -0.7494 -0.6199
vn -0.0731 -0.7816 -0.6195
vn -0.0404 -0.9986 0.0346
vn 0.0000 -0.3203 -0.9473
vn -0.1020 -0.3210 -0.9416
vn -0.1063 -0.0876 -0.9904
vn 0.0000 -0.0865 -0.9962
vn -0.2756 -0.3130 -0.9088
vn -0.6664 -0.3444 -0.6612
vn -0.7148 -0.0890 -0.6936
vn -0.2878 -0.0833 -0.9540
vn -0.0852 -0.0246 0.9960
vn 0.0000 -0.0246 0.9997
vn 0.0000 0.0469 0.9989
vn -0.0839 0.0459 0.9954
vn -0.2739 -0.0138 0.9616
vn -0.2899 0.0456 0.9560
vn -0.2790 0.1200 0.9528
vn -0.0828 0.1375 0.9870
vn -0.0680 0.2676 0.9611
vn -0.2332 0.1945 0.9528
vn -0.0662 0.2754 -0.9590
vn -0.2357 0.2130 -0.9481
vn 0.0260 0.5427 -0.8395
vn -0.0497 0.6116 -0.7895
vn -0.9990 0.0439 0.0067
vn -0.7172 0.0415 0.6956
vn -0.7184 0.0406 0.6944
vn -0.9992 0.0229 -0.0323
vn -0.0015 0.2911 -0.9567
vn -0.0150 0.6165 -0.7872
vn -0.9944 -0.1011 0.0313
vn -0.6776 -0.0943 0.7293
vn -0.7034 0.0260 0.7103
vn -0.9980 0.0560 0.0283
vn -0.0002 0.1373 0.9905
vn -0.0015 0.2830 0.9591
vn 0.2485 0.9686 -0.0011
vn -0.0540 0.9985 -0.0053
vn -0.2903 0.0429 -0.9560
vn -0.7158 0.0487 -0.6965
vn -0.7117 0.0900 -0.6967
vn -0.2844 0.1111 -0.9522
vn -0.9142 -0.4042 0.0299
vn -0.0796 -0.3222 0.9433
vn 0.0000 -0.3234 0.9462
vn 0.0000 -0.1144 0.9934
vn -0.0857 -0.1150 0.9897
vn -0.2218 -0.3011 0.9274
vn -0.2513 -0.1018 0.9625
vn -0.6634 0.0996 -0.7416
vn -0.0582 -0.7593 0.6481
vn 0.0000 -0.9994 0.0340
vn 0.0000 -0.7674 0.6411
vn -0.6362 0.1254 -0.7613
vn -0.9910 0.1230 -0.0530
vn -0.9730 0.2254 -0.0503
vn -0.6733 0.1888 -0.7148
vn 0.0000 -0.7846 -0.6200
vn 0.0000 0.1779 -0.9840
vn -0.0912 0.1729 -0.9807
vn -0.0136 0.6119 0.7908
vn -0.0301 0.9995 -0.0015
vn -0.0505 0.6186 0.7841
vn 0.0000 0.0456 -0.9989
vn -0.1061 0.0461 -0.9933
vn -0.1019 0.1209 -0.9874
vn 0.0000 0.1247 -0.9922
vn -0.6236 -0.3309 0.7083
vn 0.0197 0.5351 0.8445
vn 0.7429 0.6694 0.0074
vn 0.3107 0.5598 0.7681
vn -0.9655 0.2575 -0.0379
vn -0.6932 0.2465 -0.6772
vn -0.2727 0.1593 -0.9488
vn -0.6816 0.1162 0.7224
vn -0.6695 0.2094 0.7126
vn -0.6620 0.2831 0.6940
vn -0.2665 0.2572 -0.9288
vn 0.4826 0.8758 0.0052
vn 0.3756 0.6846 0.6246
vn -0.6413 0.4727 -0.6044
vn -0.8061 0.5916 -0.0157
vn -0.2456 0.9694 0.0009
vn -0.1921 0.3464 0.9182
vn -0.2265 0.2526 0.9406
vn -0.1779 0.6500 0.7389
vn -0.6207 0.4997 0.6041
vn -0.5035 -0.6897 -0.5204
vn 0.2402 0.3492 -0.9057
vn -0.3467 0.4812 -0.8051
vn -0.3876 0.6417 -0.6617
vn 0.1905 0.6465 -0.7387
vn 0.4527 -0.6597 0.5998
vn 0.1895 -0.7370 0.6488
vn 0.1788 -0.9833 0.0326
vn 0.5720 -0.8197 0.0291
vn 0.2324 -0.7495 -0.6198
vn 0.0404 -0.9986 0.0346
vn 0.0731 -0.7816 -0.6195
vn 0.1062 -0.0876 -0.9904
vn 0.1019 -0.3211 -0.9415
vn 0.2746 -0.3139 -0.9089
vn 0.2877 -0.0824 -0.9541
vn 0.7172 -0.0825 -0.6919
vn 0.6638 -0.3479 -0.6620
vn 0.0860 -0.0240 0.9960
vn 0.0856 0.0462 0.9952
vn 0.2773 -0.0092 0.9607
vn 0.2960 0.0526 0.9537
vn 0.2967 0.1282 0.9463
vn 0.2436 0.2116 0.9465
vn 0.0602 0.2683 0.9614
vn 0.0833 0.1372 0.9870
vn 0.0617 0.2737 -0.9598
vn 0.0201 0.5988 -0.8007
vn -0.0470 0.4964 -0.8668
vn 0.2331 0.2269 -0.9456
vn 0.9962 0.0815 0.0293
vn 0.9958 0.0872 0.0287
vn 0.7205 0.1022 0.6859
vn 0.7188 0.0696 0.6917
vn 0.9956 -0.0874 0.0326
vn 0.9973 0.0658 0.0316
vn 0.6995 0.0354 0.7137
vn 0.6809 -0.0846 0.7274
vn -0.0140 0.9999 -0.0038
vn -0.3578 0.9334 -0.0251
vn 0.2929 0.0468 -0.9550
vn 0.2836 0.1093 -0.9527
vn 0.7145 0.0960 -0.6930
vn 0.7154 0.0572 -0.6964
vn 0.9118 -0.4095 0.0297
vn 0.0795 -0.3223 0.9433
vn 0.0856 -0.1149 0.9897
vn 0.2207 -0.3020 0.9274
vn 0.2526 -0.0996 0.9624
vn 0.7039 0.1209 -0.6999
vn 0.0581 -0.7593 0.6481
vn 0.6952 0.1850 -0.6945
vn 0.6920 0.2498 -0.6773
vn 0.9668 0.2549 0.0164
vn 0.9851 0.1699 0.0255
vn 0.0918 0.1734 -0.9806
vn 0.0120 0.6026 0.7979
vn 0.1030 0.1210 -0.9873
vn 0.1067 0.0466 -0.9932
vn 0.6213 -0.3344 0.7086
vn -0.0553 0.5081 0.8595
vn -0.3820 0.5013 0.7764
vn -0.8266 0.5603 -0.0520
vn 0.6806 0.3124 -0.6626
vn 0.9448 0.3273 0.0154
vn 0.2661 0.1574 -0.9510
vn 0.6893 0.1615 0.7063
vn 0.6146 0.3198 0.7211
vn 0.6542 0.2312 0.7201
vn 0.2620 0.2847 -0.9221
vn -0.5191 0.8538 -0.0382
vn -0.4239 0.6616 0.6185
vn 0.5994 0.5294 -0.6004
vn 0.2257 0.9742 -0.0065
vn 0.7476 0.6639 0.0143
vn 0.2248 0.2702 0.9362
vn 0.1708 0.3515 0.9205
vn 0.1473 0.6582 0.7382
vn 0.5447 0.5495 0.6335
vn 0.5018 -0.6908 -0.5206
s 1
f 30/1/1 39/2/2 38/3/3 29/4/4
f 13/5/5 1/6/6 54/7/7 52/8/8
f 49/9/9 25/10/10 6/11/11 54/12/7
f 168/13/12 77/14/13 11/15/14 91/16/15
f 79/17/16 74/18/17 21/19/18 57/20/19
f 65/21/20 156/22/21 83/23/22 7/24/23
f 69/25/24 65/21/20 7/24/23 60/26/25
f 62/27/26 46/28/27 9/29/28 56/30/29
f 10/31/30 58/32/31 23/33/32 72/34/33
f 2/35/34 18/36/35 48/37/36 44/38/37
f 88/39/38 10/31/30 72/34/33 105/40/39
f 4/41/40 22/42/41 67/43/42 63/44/43
f 46/28/27 135/45/44 86/46/45 9/29/28
f 23/33/32 5/47/46 70/48/47 72/34/33
f 68/49/48 66/50/49 17/51/50 59/52/51
f 18/36/35 60/26/25 62/27/26 48/37/36
f 74/18/17 73/53/52 4/54/40 21/19/18
f 76/55/53 169/56/54 89/57/55 12/58/56
f 78/59/57 76/55/53 12/58/56 55/60/58
f 47/61/59 17/51/50 2/62/34 44/63/37
f 24/64/60 6/65/11 82/66/61 108/67/62
f 19/68/63 3/69/64 53/70/65 51/71/66
f 104/72/67 82/73/61 6/11/11 25/10/10
f 137/74/68 45/75/69 10/31/30 88/39/38
f 109/76/70 81/77/71 70/78/47 71/79/72
f 158/80/73 64/81/74 8/82/75 85/83/76
f 75/84/77 73/85/52 1/6/6 13/5/5
f 26/86/78 5/87/46 27/88/79 33/89/80
f 53/70/65 28/90/81 31/91/82 51/71/66
f 61/92/83 47/61/59 19/68/63 58/32/31
f 20/93/84 3/94/64 44/38/37 48/37/36
f 23/33/32 29/4/4 27/95/79 5/47/46
f 53/96/65 50/97/85 32/98/86 28/99/81
f 16/100/87 51/71/66 31/91/82 30/1/1
f 18/36/35 2/35/34 63/44/43 67/43/42
f 6/65/11 24/64/60 52/8/8 54/7/7
f 29/4/4 38/3/3 35/101/88 27/95/79
f 27/88/79 35/102/88 42/103/89 33/89/80
f 40/104/90 37/105/91 36/106/92 39/2/2
f 31/91/82 40/104/90 39/2/2 30/1/1
f 31/91/82 28/90/81 37/105/91 40/104/90
f 26/86/78 33/89/80 34/107/93 14/108/94
f 39/2/2 36/106/92 35/101/88 38/3/3
f 16/100/87 30/1/1 29/4/4 23/33/32
f 42/103/89 35/102/88 36/109/92 43/110/95
f 43/110/95 36/109/92 37/111/91 41/112/96
f 47/61/59 44/63/37 3/69/64 19/68/63
f 66/50/49 63/113/43 2/62/34 17/51/50
f 33/89/80 42/103/89 43/110/95 34/107/93
f 34/107/93 43/110/95 41/112/96 32/98/86
f 59/52/51 17/51/50 47/61/59 61/92/83
f 85/83/76 8/82/75 45/75/69 137/74/68
f 7/24/23 83/23/22 135/45/44 46/28/27
f 60/26/25 7/24/23 46/28/27 62/27/26
f 66/50/49 21/19/18 4/54/40 63/113/43
f 58/32/31 16/100/87 23/33/32
f 32/98/86 41/112/96 37/111/91 28/99/81
f 8/82/75 59/52/51 61/92/83 45/75/69
f 14/108/94 50/97/85 20/93/84 56/30/29
f 34/107/93 32/98/86 50/97/85 14/108/94
f 20/93/84 50/97/85 53/96/65 3/94/64
f 45/75/69 61/92/83 58/32/31 10/31/30
f 75/84/77 78/59/57 55/60/58 22/42/41
f 64/81/74 68/49/48 59/52/51 8/82/75
f 48/37/36 62/27/26 56/30/29 20/93/84
f 67/43/42 69/25/24 60/26/25 18/36/35
f 77/14/13 79/17/16 57/20/19 11/15/14
f 19/68/63 51/71/66 16/100/87 58/32/31
f 22/42/41 55/60/58 69/25/24 67/43/42
f 11/15/14 57/20/19 68/49/48 64/81/74
f 91/16/15 11/15/14 64/81/74 158/80/73
f 57/20/19 21/19/18 66/50/49 68/49/48
f 55/60/58 12/58/56 65/21/20 69/25/24
f 12/58/56 89/57/55 156/22/21 65/21/20
f 49/9/9 54/12/7 1/114/6 15/115/97
f 71/79/72 70/78/47 5/87/46 26/86/78
f 71/79/72 9/29/28 86/46/45 109/76/70
f 72/34/33 70/48/47 81/116/71 105/40/39
f 25/10/10 49/9/9 79/17/16 77/14/13
f 13/5/5 52/8/8 78/59/57 75/84/77
f 22/42/41 4/41/40 73/85/52 75/84/77
f 52/8/8 24/64/60 76/55/53 78/59/57
f 24/64/60 108/67/62 169/56/54 76/55/53
f 15/115/97 1/114/6 73/53/52 74/18/17
f 49/9/9 15/115/97 74/18/17 79/17/16
f 104/72/67 25/10/10 77/14/13 168/13/12
f 14/108/94 56/30/29 26/86/78
f 9/29/28 71/79/72 26/86/78 56/30/29
f 121/117/98 120/118/99 129/119/100 130/120/101
f 100/121/102 145/122/103 147/123/104 80/124/105
f 142/125/106 147/126/104 93/127/107 116/128/108
f 168/13/12 91/16/15 98/129/109 174/130/110
f 176/131/111 150/132/112 112/133/113 171/134/114
f 160/135/115 94/136/116 83/23/22 156/22/21
f 164/137/117 153/138/118 94/136/116 160/135/115
f 155/139/119 149/140/120 96/141/121 139/142/122
f 97/143/123 167/144/124 114/145/125 151/146/126
f 84/147/127 136/148/128 141/149/129 107/150/130
f 88/39/38 105/40/39 167/144/124 97/143/123
f 90/151/131 157/152/132 162/153/133 113/154/134
f 139/142/122 96/141/121 86/46/45 135/45/44
f 114/145/125 167/144/124 165/155/135 92/156/136
f 163/157/137 152/158/138 106/159/139 161/160/140
f 107/150/130 141/149/129 155/139/119 153/138/118
f 171/134/114 112/133/113 90/161/131 170/162/141
f 173/163/142 99/164/143 89/57/55 169/56/54
f 175/165/144 148/166/145 99/164/143 173/163/142
f 140/167/146 136/168/128 84/169/127 106/159/139
f 115/170/147 108/67/62 82/66/61 93/171/107
f 110/172/148 144/173/149 146/174/150 87/175/151
f 104/72/67 116/128/108 93/127/107 82/73/61
f 137/74/68 88/39/38 97/143/123 138/176/152
f 109/76/70 166/177/153 165/178/135 81/77/71
f 158/80/73 85/83/76 95/179/154 159/180/155
f 172/181/156 100/121/102 80/124/105 170/182/141
f 117/183/157 124/184/158 118/185/159 92/186/136
f 146/174/150 144/173/149 122/187/160 119/188/161
f 154/189/162 151/146/126 110/172/148 140/167/146
f 111/190/163 141/149/129 136/148/128 87/191/151
f 114/145/125 92/156/136 118/192/159 120/118/99
f 146/193/150 119/194/161 123/195/164 143/196/165
f 103/197/166 121/117/98 122/187/160 144/173/149
f 107/150/130 162/153/133 157/152/132 84/147/127
f 93/171/107 147/123/104 145/122/103 115/170/147
f 120/118/99 118/192/159 126/198/167 129/119/100
f 118/185/159 124/184/158 133/199/168 126/200/167
f 131/201/169 130/120/101 127/202/170 128/203/171
f 122/187/160 121/117/98 130/120/101 131/201/169
f 122/187/160 131/201/169 128/203/171 119/188/161
f 117/183/157 101/204/172 125/205/173 124/184/158
f 130/120/101 129/119/100 126/198/167 127/202/170
f 103/197/166 114/145/125 120/118/99 121/117/98
f 133/199/168 134/206/174 127/207/170 126/200/167
f 134/206/174 132/208/175 128/209/171 127/207/170
f 140/167/146 110/172/148 87/175/151 136/168/128
f 161/160/140 106/159/139 84/169/127 157/210/132
f 124/184/158 125/205/173 134/206/174 133/199/168
f 125/205/173 123/195/164 132/208/175 134/206/174
f 152/158/138 154/189/162 140/167/146 106/159/139
f 85/83/76 137/74/68 138/176/152 95/179/154
f 94/136/116 139/142/122 135/45/44 83/23/22
f 153/138/118 155/139/119 139/142/122 94/136/116
f 161/160/140 157/210/132 90/161/131 112/133/113
f 151/146/126 114/145/125 103/197/166
f 123/195/164 119/194/161 128/209/171 132/208/175
f 95/179/154 138/176/152 154/189/162 152/158/138
f 101/204/172 149/140/120 111/190/163 143/196/165
f 125/205/173 101/204/172 143/196/165 123/195/164
f 111/190/163 87/191/151 146/193/150 143/196/165
f 138/176/152 97/143/123 151/146/126 154/189/162
f 172/181/156 113/154/134 148/166/145 175/165/144
f 159/180/155 95/179/154 152/158/138 163/157/137
f 141/149/129 111/190/163 149/140/120 155/139/119
f 162/153/133 107/150/130 153/138/118 164/137/117
f 174/130/110 98/129/109 150/132/112 176/131/111
f 110/172/148 151/146/126 103/197/166 144/173/149
f 113/154/134 162/153/133 164/137/117 148/166/145
f 98/129/109 159/180/155 163/157/137 150/132/112
f 91/16/15 158/80/73 159/180/155 98/129/109
f 150/132/112 163/157/137 161/160/140 112/133/113
f 148/166/145 164/137/117 160/135/115 99/164/143
f 99/164/143 160/135/115 156/22/21 89/57/55
f 142/125/106 102/211/176 80/212/105 147/126/104
f 166/177/153 117/183/157 92/186/136 165/178/135
f 166/177/153 109/76/70 86/46/45 96/141/121
f 167/144/124 105/40/39 81/116/71 165/155/135
f 116/128/108 174/130/110 176/131/111 142/125/106
f 100/121/102 172/181/156 175/165/144 145/122/103
f 113/154/134 172/181/156 170/182/141 90/151/131
f 145/122/103 175/165/144 173/163/142 115/170/147
f 115/170/147 173/163/142 169/56/54 108/67/62
f 102/211/176 171/134/114 170/162/141 80/212/105
f 142/125/106 176/131/111 171/134/114 102/211/176
f 104/72/67 168/13/12 174/130/110 116/128/108
f 101/204/172 117/183/157 149/140/120
f 96/141/121 149/140/120 117/183/157 166/177/153
